<svg width="31" height="36" viewBox="0 0 31 36" fill="none" xmlns="http://www.w3.org/2000/svg">
<g filter="url(#filter0_d)">
<path fill-rule="evenodd" clip-rule="evenodd" d="M5 11.8131C5 5.83326 9.74832 1 15.4919 1C21.2517 1 26 5.83326 26 11.8131C26 14.8264 24.9587 17.6239 23.2447 19.995C21.3538 22.6106 19.0233 24.8894 16.4 26.6782C15.7996 27.0915 15.2577 27.1227 14.5988 26.6782C11.9606 24.8894 9.62999 22.6106 7.75532 19.995C6.0401 17.6239 5 14.8264 5 11.8131ZM12.034 12.1497C12.034 14.153 13.5873 15.7285 15.4919 15.7285C17.3977 15.7285 18.9659 14.153 18.9659 12.1497C18.9659 10.1621 17.3977 8.50983 15.4919 8.50983C13.5873 8.50983 12.034 10.1621 12.034 12.1497Z" fill="#DD7070"/>
<path d="M23.2447 19.995L23.3662 20.0829L23.3662 20.0829L23.2447 19.995ZM16.4 26.6782L16.3155 26.5542L16.3149 26.5546L16.4 26.6782ZM14.5988 26.6782L14.5146 26.8023L14.5149 26.8025L14.5988 26.6782ZM7.75532 19.995L7.87724 19.9077L7.87686 19.9071L7.75532 19.995ZM15.4919 0.85C9.66179 0.85 4.85 5.75416 4.85 11.8131H5.15C5.15 5.91236 9.83486 1.15 15.4919 1.15V0.85ZM26.15 11.8131C26.15 5.75401 21.3381 0.85 15.4919 0.85V1.15C21.1653 1.15 25.85 5.91251 25.85 11.8131H26.15ZM23.3662 20.0829C25.0962 17.6897 26.15 14.862 26.15 11.8131H25.85C25.85 14.7908 24.8211 17.5581 23.1231 19.9072L23.3662 20.0829ZM16.4845 26.8021C19.1224 25.0033 21.4654 22.7122 23.3662 20.0829L23.1231 19.9072C21.2422 22.5089 18.9241 24.7755 16.3155 26.5542L16.4845 26.8021ZM14.5149 26.8025C14.8614 27.0363 15.1912 27.1543 15.5233 27.1499C15.8551 27.1455 16.1693 27.0191 16.485 26.8017L16.3149 26.5546C16.0303 26.7506 15.7733 26.8465 15.5193 26.8499C15.2657 26.8533 14.9951 26.7646 14.6827 26.5538L14.5149 26.8025ZM7.63341 20.0824C9.51822 22.7121 11.8615 25.0035 14.5146 26.8023L14.683 26.554C12.0596 24.7753 9.74175 22.509 7.87724 19.9077L7.63341 20.0824ZM4.85 11.8131C4.85 14.862 5.90256 17.6897 7.63379 20.083L7.87686 19.9071C6.17763 17.5581 5.15 14.7908 5.15 11.8131H4.85ZM15.4919 15.5785C13.6741 15.5785 12.184 14.0741 12.184 12.1497H11.884C11.884 14.2318 13.5005 15.8785 15.4919 15.8785V15.5785ZM18.8159 12.1497C18.8159 14.0732 17.3118 15.5785 15.4919 15.5785V15.8785C17.4836 15.8785 19.1159 14.2327 19.1159 12.1497H18.8159ZM15.4919 8.65983C17.3081 8.65983 18.8159 10.238 18.8159 12.1497H19.1159C19.1159 10.0862 17.4873 8.35983 15.4919 8.35983V8.65983ZM12.184 12.1497C12.184 10.2371 13.6778 8.65983 15.4919 8.65983V8.35983C13.4969 8.35983 11.884 10.0871 11.884 12.1497H12.184Z" fill="#C97257"/>
</g>
<defs>
<filter id="filter0_d" x="0.849976" y="0.849976" width="29.3" height="34.3" filterUnits="userSpaceOnUse" color-interpolation-filters="sRGB">
<feFlood flood-opacity="0" result="BackgroundImageFix"/>
<feColorMatrix in="SourceAlpha" type="matrix" values="0 0 0 0 0 0 0 0 0 0 0 0 0 0 0 0 0 0 127 0"/>
<feOffset dy="4"/>
<feGaussianBlur stdDeviation="2"/>
<feColorMatrix type="matrix" values="0 0 0 0 0 0 0 0 0 0 0 0 0 0 0 0 0 0 0.25 0"/>
<feBlend mode="normal" in2="BackgroundImageFix" result="effect1_dropShadow"/>
<feBlend mode="normal" in="SourceGraphic" in2="effect1_dropShadow" result="shape"/>
</filter>
</defs>
</svg>