<svg width="21" height="21" viewBox="0 0 21 21" fill="none" xmlns="http://www.w3.org/2000/svg">
<path fill-rule="evenodd" clip-rule="evenodd" d="M19.2501 10.5C19.2501 15.33 15.3214 19.25 10.5001 19.25L10.2553 19.2466C5.53837 19.1169 1.75012 15.2481 1.75012 10.5C1.75012 5.67875 5.67012 1.75 10.5001 1.75C15.3214 1.75 19.2501 5.67875 19.2501 10.5ZM8.76762 7C8.51387 7.2625 8.51387 7.67375 8.77637 7.9275L11.3576 10.5L8.77637 13.0725C8.51387 13.3262 8.51387 13.7462 8.76762 14C9.03012 14.2625 9.44137 14.2625 9.69512 14L12.7489 10.9637C12.8714 10.8412 12.9414 10.675 12.9414 10.5C12.9414 10.325 12.8714 10.1587 12.7489 10.0362L9.69512 7C9.57262 6.86875 9.40637 6.8075 9.24012 6.8075C9.06512 6.8075 8.89887 6.86875 8.76762 7Z" fill="#DD7070"/>
</svg>
