<svg width="50" height="47" viewBox="0 0 50 47" fill="none" xmlns="http://www.w3.org/2000/svg">
<g filter="url(#filter0_d)">
<path d="M41.5833 18.8262L41.7249 20.6479C41.739 20.8298 41.867 20.9237 42.0266 20.9892C42.1861 21.0547 41.7345 18.9014 41.7345 18.9014L41.5833 18.8262Z" fill="#E0E0E0"/>
<path d="M41.7345 18.9014L41.8703 20.6483C41.8967 20.9876 42.1053 21.1336 42.3849 20.9406L42.6007 20.794C42.7477 20.6814 42.8661 20.5357 42.9461 20.3686C43.026 20.2016 43.0653 20.018 43.0607 19.8328L42.9246 18.0808L41.7345 18.9014Z" fill="#EBEBEB"/>
<path d="M42.9249 18.0859L42.7723 18.0095L41.5819 18.8263L41.7345 18.9014L42.9249 18.0859Z" fill="#FAFAFA"/>
<path d="M41.2475 22.6553C41.2298 22.6569 41.2121 22.6538 41.196 22.6464C41.18 22.639 41.1661 22.6275 41.1559 22.6131C41.1398 22.5909 41.1331 22.5632 41.1373 22.5361C41.1415 22.509 41.1563 22.4847 41.1784 22.4685L42.2772 21.6602C42.3338 21.6183 42.3787 21.5628 42.4078 21.4987C42.4368 21.4347 42.4491 21.3643 42.4435 21.2942L42.3023 19.4777C42.3002 19.4504 42.309 19.4233 42.3269 19.4024C42.3447 19.3815 42.3701 19.3686 42.3975 19.3665C42.4249 19.3644 42.452 19.3732 42.4728 19.3911C42.4937 19.4089 42.5066 19.4343 42.5087 19.4617L42.6499 21.2782C42.6586 21.3833 42.6402 21.489 42.5962 21.5849C42.5523 21.6808 42.4844 21.7638 42.3992 21.8259L41.3069 22.6351C41.2897 22.6479 41.2689 22.6549 41.2475 22.6553Z" fill="#DD7070"/>
<path opacity="0.5" d="M41.2475 22.6553C41.2298 22.6569 41.2121 22.6538 41.196 22.6464C41.18 22.639 41.1661 22.6275 41.1559 22.6131C41.1398 22.5909 41.1331 22.5632 41.1373 22.5361C41.1415 22.509 41.1563 22.4847 41.1784 22.4685L42.2772 21.6602C42.3338 21.6183 42.3787 21.5628 42.4078 21.4987C42.4368 21.4347 42.4491 21.3643 42.4435 21.2942L42.3023 19.4777C42.3002 19.4504 42.309 19.4233 42.3269 19.4024C42.3447 19.3815 42.3701 19.3686 42.3975 19.3665C42.4249 19.3644 42.452 19.3732 42.4728 19.3911C42.4937 19.4089 42.5066 19.4343 42.5087 19.4617L42.6499 21.2782C42.6586 21.3833 42.6402 21.489 42.5962 21.5849C42.5523 21.6808 42.4844 21.7638 42.3992 21.8259L41.3069 22.6351C41.2897 22.6479 41.2689 22.6549 41.2475 22.6553Z" fill="#DD7070"/>
<path d="M8.71197 23.9533L10.7345 22.8227C10.7345 22.8227 10.4189 21.4675 9.25342 21.8852C8.08789 22.3028 8.71197 23.9533 8.71197 23.9533Z" fill="#DD7070"/>
<path opacity="0.5" d="M8.71197 23.9533L10.7345 22.8227C10.7345 22.8227 10.4189 21.4675 9.25342 21.8852C8.08789 22.3028 8.71197 23.9533 8.71197 23.9533Z" fill="#DD7070"/>
<path d="M26.9623 32.69L28.9823 31.5595C28.9823 31.5595 28.6652 29.6009 27.3175 30.1794C25.9698 30.7579 26.9623 32.69 26.9623 32.69Z" fill="#DD7070"/>
<path opacity="0.5" d="M26.9623 32.69L28.9823 31.5595C28.9823 31.5595 28.6652 29.6009 27.3175 30.1794C25.9698 30.7579 26.9623 32.69 26.9623 32.69Z" fill="#DD7070"/>
<path d="M9.84424 23.6265L9.32718 22.7685L10.3509 22.0633C10.6776 21.8407 11.1335 21.8286 11.65 22.0779C12.758 22.607 13.7389 24.122 13.8423 25.4521C13.8966 26.1514 13.7002 26.6638 13.341 26.9188L13.3263 26.9291L12.2751 27.6493L11.729 26.7352C10.7752 26.1188 9.97409 24.8131 9.84424 23.6265Z" fill="#263238"/>
<path d="M8.77107 24.2642C8.86051 25.415 9.60905 26.6963 10.5152 27.367C10.6547 27.4696 10.8033 27.5593 10.9592 27.6349C12.0673 28.1653 12.8809 27.5115 12.7759 26.1776C12.6975 25.1687 12.1181 24.0599 11.362 23.349C11.1333 23.1302 10.8727 22.9474 10.5891 22.8068C9.47972 22.2765 8.6673 22.9289 8.77107 24.2642Z" fill="#37474F"/>
<path d="M10.6504 23.6119C9.94683 23.2772 9.43109 23.7222 9.50008 24.6099C9.56906 25.4975 10.1968 26.4935 10.9005 26.8308C11.6043 27.1681 12.1197 26.7192 12.0508 25.8329C11.9819 24.9465 11.3553 23.9478 10.6504 23.6119Z" fill="#455A64"/>
<path d="M8.77105 24.2641C8.86049 25.4149 9.60903 26.6962 10.5152 27.3669C9.86989 26.7402 9.38916 25.9639 9.11561 25.107C8.89289 24.3455 8.86939 23.2415 9.50818 22.9102C10.147 22.5789 11.0636 23.1008 11.3593 23.3478C11.1306 23.129 10.87 22.9462 10.5864 22.8057C9.4797 22.2765 8.66728 22.9289 8.77105 24.2641Z" fill="#455A64"/>
<path d="M10.7106 24.3861C10.3453 24.212 10.0779 24.4443 10.1138 24.9062C10.1497 25.3681 10.4753 25.884 10.8406 26.0581C11.2058 26.2322 11.4734 26.0011 11.4375 25.5392C11.4016 25.0774 11.076 24.5614 10.7106 24.3861Z" fill="#E0E0E0"/>
<path d="M10.5088 24.3938C10.4633 24.3716 10.4149 24.3561 10.365 24.3479C10.192 24.4094 10.0908 24.6106 10.1138 24.9061C10.1522 25.2541 10.3034 25.5801 10.5441 25.8344C10.5698 25.8509 10.5965 25.8657 10.6242 25.8788C10.9478 26.0353 11.1862 25.8286 11.1543 25.4184C11.1224 25.0081 10.8323 24.5491 10.5088 24.3938Z" fill="#F5F5F5"/>
<path d="M28.0942 32.3424L27.5744 31.482L28.5982 30.7781C28.9236 30.5556 29.3807 30.5421 29.8972 30.7914C31.0052 31.3205 31.9861 32.8355 32.0896 34.1669C32.1439 34.8662 31.9474 35.3773 31.5883 35.6336L31.5734 35.6426L30.5224 36.3641L29.9731 35.4593C29.023 34.8401 28.222 33.5356 28.0942 32.3424Z" fill="#263238"/>
<path d="M27.0188 32.9854C27.1083 34.1362 27.8504 35.418 28.763 36.0882C28.9029 36.1918 29.052 36.2823 29.2084 36.3586C30.3152 36.8878 31.1302 36.2352 31.0251 34.9C30.9468 33.8924 30.3673 32.7823 29.6113 32.0727L29.6108 32.0663C29.3824 31.8475 29.1218 31.665 28.838 31.5254C27.7289 30.9989 26.9155 31.6553 27.0188 32.9854Z" fill="#37474F"/>
<path d="M28.8983 32.3331C28.1948 31.9984 27.6792 32.4447 27.748 33.331C27.8169 34.2174 28.4449 35.216 29.149 35.5584C29.8531 35.9009 30.3682 35.4468 30.2993 34.5605C30.2304 33.6742 29.6034 32.6703 28.8983 32.3331Z" fill="#455A64"/>
<path d="M28.9585 33.1086C28.5932 32.9332 28.3257 33.1655 28.3616 33.6274C28.3975 34.0893 28.7231 34.6052 29.0885 34.7806C29.4539 34.956 29.7212 34.7223 29.6853 34.2604C29.6494 33.7986 29.324 33.2852 28.9585 33.1086Z" fill="#E0E0E0"/>
<path d="M28.7527 33.1154C28.7071 33.094 28.6588 33.079 28.6091 33.0707C28.4359 33.1309 28.3348 33.3322 28.3577 33.6276C28.396 33.9757 28.5472 34.3018 28.7881 34.5559C28.8138 34.5729 28.8406 34.5881 28.8682 34.6016C29.1918 34.7569 29.4301 34.5502 29.3982 34.1399C29.3664 33.7296 29.0803 33.2716 28.7527 33.1154Z" fill="#F5F5F5"/>
<path d="M27.0189 32.9854C27.1083 34.1362 27.8504 35.418 28.763 36.0882C28.1172 35.4613 27.6364 34.6845 27.3633 33.827C27.1406 33.0655 27.1171 31.9615 27.7547 31.6316C28.3923 31.3017 29.3114 31.8208 29.6057 32.0679C29.3773 31.8491 29.1167 31.6667 28.833 31.527C27.7289 30.9989 26.9155 31.6553 27.0189 32.9854Z" fill="#455A64"/>
<path d="M35.4181 35.8955C35.4317 35.9818 35.4214 36.0701 35.3882 36.1509C35.3551 36.2317 35.3004 36.3019 35.2302 36.3538C35.1599 36.4057 35.0768 36.4373 34.9898 36.4453C34.9029 36.4532 34.8154 36.4371 34.7369 36.3988L32.4938 35.3258L31.7523 34.9707C31.758 34.9486 31.7593 34.9255 31.7561 34.9029C31.7625 34.8682 31.7632 34.8326 31.7583 34.7976C31.6441 33.3281 30.4733 31.6241 29.1389 30.988C27.8046 30.3519 26.8288 31.0235 26.943 32.4929L26.9583 32.6903L13.505 26.2559C13.5098 26.221 13.5101 26.1857 13.5059 26.1507C13.3917 24.6812 12.2209 22.9772 10.8969 22.3416C9.57297 21.706 8.58549 22.3771 8.69969 23.8466L8.70852 23.9601L6.82151 23.0607L5.70355 8.67566L26.6355 18.6835L30.2542 20.9384L32.407 28.364L34.6393 31.1511L35.1046 34.0664L35.4181 35.8955Z" fill="#DD7070"/>
<path opacity="0.15" d="M35.4181 35.8955C35.4317 35.9818 35.4214 36.0701 35.3882 36.1509C35.3551 36.2317 35.3004 36.3019 35.2302 36.3538C35.1599 36.4057 35.0768 36.4373 34.9898 36.4453C34.9029 36.4532 34.8154 36.4371 34.7369 36.3988L32.4938 35.3258L31.7523 34.9707C31.758 34.9486 31.7593 34.9255 31.7561 34.9029C31.7625 34.8682 31.7632 34.8326 31.7583 34.7976C31.6441 33.3281 30.4733 31.6241 29.1389 30.988C27.8046 30.3519 26.8288 31.0235 26.943 32.4929L26.9583 32.6903L13.505 26.2559C13.5098 26.221 13.5101 26.1857 13.5059 26.1507C13.3917 24.6812 12.2209 22.9772 10.8969 22.3416C9.57297 21.706 8.58549 22.3771 8.69969 23.8466L8.70852 23.9601L6.82151 23.0607L5.70355 8.67566L26.6355 18.6835L30.2542 20.9384L32.407 28.364L34.6393 31.1511L35.1046 34.0664L35.4181 35.8955Z" fill="#DD7070"/>
<path d="M28.3956 21.3216L28.7565 25.9661C28.7698 26.1377 28.6553 26.2167 28.5015 26.1417L24.4696 24.2148C24.3877 24.1703 24.3174 24.107 24.2645 24.0301C24.2116 23.9533 24.1776 23.865 24.1653 23.7725L23.7854 18.8842C23.772 18.7126 23.8867 18.6349 24.0417 18.7085L26.468 19.8672C26.6231 19.9421 26.8658 20.0751 27.0103 20.1651L28.1096 20.8494C28.1874 20.904 28.253 20.9742 28.3022 21.0555C28.3514 21.1368 28.3832 21.2274 28.3956 21.3216Z" fill="#455A64"/>
<path d="M30.0762 26.8993C29.9396 26.8246 29.8225 26.7187 29.7344 26.5902C29.6464 26.4617 29.59 26.3143 29.5696 26.1599L29.2499 22.0456C29.2278 21.7618 29.3218 21.6014 29.4597 21.6893L29.7083 21.8478C29.8956 21.9799 30.0354 22.1688 30.1071 22.3866L31.443 27.2512C31.4956 27.4431 31.3932 27.5289 31.2139 27.4429L30.0762 26.8993Z" fill="#455A64"/>
<g opacity="0.15">
<path opacity="0.15" d="M26.5375 32.035C26.4919 32.0377 26.4464 32.0282 26.4056 32.0076L24.5103 31.101C24.4349 31.0604 24.3701 31.0025 24.3213 30.9321C24.2726 30.8616 24.2411 30.7807 24.2296 30.6958L23.254 18.1428C23.246 18.1063 23.2492 18.0682 23.263 18.0335C23.2768 17.9988 23.3006 17.969 23.3315 17.9479C23.3623 17.9268 23.3987 17.9154 23.4361 17.9152C23.4735 17.915 23.51 17.9259 23.5412 17.9465L26.4299 19.3276C26.5646 19.3898 26.7667 19.5026 26.8894 19.5774L28.5362 20.5929C28.6084 20.6421 28.6693 20.7061 28.7149 20.7807C28.7606 20.8552 28.7898 20.9386 28.8008 21.0253L29.5388 30.5207C29.545 30.5556 29.5417 30.5916 29.5292 30.6248C29.5167 30.6579 29.4955 30.6871 29.4678 30.7092C29.4358 30.728 29.3994 30.7378 29.3623 30.7375C29.3252 30.7371 29.289 30.7268 29.2574 30.7074C28.8773 30.5267 28.1451 30.2747 27.5227 30.5826C26.9203 30.8813 26.7664 31.489 26.7276 31.8255C26.7252 31.8644 26.7136 31.9021 26.6936 31.9355C26.6736 31.9689 26.6459 31.997 26.6128 32.0175C26.5892 32.0286 26.5636 32.0346 26.5375 32.035ZM23.4263 18.0217C23.415 18.0223 23.4041 18.0259 23.3946 18.0319C23.381 18.0448 23.3708 18.061 23.3651 18.0789C23.3595 18.0969 23.3585 18.116 23.3624 18.1344L24.338 30.6874C24.3476 30.7554 24.3728 30.8203 24.4116 30.8769C24.4505 30.9336 24.5019 30.9805 24.5619 31.0139L26.4529 31.9144C26.4699 31.9239 26.4888 31.9294 26.5082 31.9306C26.5276 31.9318 26.547 31.9286 26.565 31.9212C26.5834 31.9088 26.5985 31.892 26.6089 31.8725C26.6194 31.8529 26.6249 31.8311 26.6251 31.8089C26.6661 31.4513 26.8312 30.8038 27.4788 30.4848C28.1263 30.1658 28.9019 30.4261 29.3059 30.6141C29.3517 30.6352 29.391 30.6399 29.4131 30.6239C29.4253 30.6115 29.4342 30.5963 29.439 30.5796C29.4438 30.5629 29.4444 30.5453 29.4407 30.5283L28.7028 21.0329C28.6929 20.9623 28.6685 20.8945 28.6312 20.8338C28.5938 20.773 28.5444 20.7206 28.4858 20.6799L26.8391 19.6657C26.7179 19.592 26.5172 19.4817 26.3891 19.4203L23.5003 18.0393C23.4776 18.0272 23.4521 18.0211 23.4263 18.0217Z" fill="#DD7070"/>
</g>
<path d="M21.777 17.6256L7.79842 10.9464C7.66389 10.8855 7.57423 10.9509 7.58526 11.0928L8.17582 18.6917C8.18573 18.769 8.21386 18.8428 8.25789 18.9071C8.30193 18.9713 8.36061 19.0242 8.42909 19.0614L22.4082 25.747C22.5427 25.8079 22.6324 25.7425 22.6214 25.6006L22.0308 18.0017C22.0216 17.9233 21.9938 17.8482 21.9496 17.7828C21.9055 17.7174 21.8463 17.6634 21.777 17.6256Z" fill="#37474F"/>
<path d="M22.6033 25.3684L8.15784 18.4608L6.95759 19.2835L21.403 26.1911L22.6033 25.3684Z" fill="#F5F5F5"/>
<path d="M6.95764 19.2834L6.99524 19.7672L21.4407 26.6749L21.4031 26.1911L6.95764 19.2834Z" fill="#EBEBEB"/>
<path d="M21.4406 26.6749L22.6409 25.8522L22.6033 25.3684L21.403 26.1911L21.4406 26.6749Z" fill="#E0E0E0"/>
<path d="M22.1229 19.1886L22.0101 17.7372L19.322 21.1091L22.1229 19.1886Z" fill="#E0E0E0"/>
<path d="M4.93222 14.9332C4.96097 15.1493 5.04022 15.3557 5.16356 15.5355C5.2869 15.7154 5.45086 15.8636 5.64216 15.9683C6.00336 16.1401 6.27079 15.9571 6.2398 15.5584L6.18366 14.8359L4.86932 14.2073L4.93222 14.9332Z" fill="#E6E6E6"/>
<path d="M7.55921 16.1865C7.5879 16.4026 7.66699 16.6088 7.79009 16.7886C7.91319 16.9685 8.07685 17.1168 8.26786 17.2217L8.27431 17.2212C8.63551 17.393 8.90293 17.21 8.87195 16.8113L8.8153 16.0824L7.50226 15.4537L7.55921 16.1865Z" fill="#E6E6E6"/>
<path d="M10.1852 17.4427C10.214 17.6588 10.2932 17.8652 10.4166 18.045C10.5399 18.2249 10.7039 18.3731 10.8952 18.4778C11.2551 18.6497 11.5225 18.4667 11.4915 18.068L11.4348 17.3378L10.1218 16.7104L10.1852 17.4427Z" fill="#E6E6E6"/>
<path d="M12.8113 18.6987C12.84 18.9149 12.9193 19.1212 13.0426 19.3011C13.166 19.4809 13.3299 19.6291 13.5212 19.7338L13.5277 19.7333C13.889 19.9064 14.1564 19.7234 14.1254 19.3247L14.0689 18.5971L12.7546 17.9698L12.8113 18.6987Z" fill="#E6E6E6"/>
<path d="M15.4388 19.9573C15.4675 20.1733 15.5466 20.3796 15.6697 20.5594C15.7928 20.7392 15.9564 20.8876 16.1474 20.9925L16.1539 20.992C16.5152 21.1651 16.7826 20.9821 16.7516 20.5834L16.6954 19.8596L15.3824 19.2322L15.4388 19.9573Z" fill="#E6E6E6"/>
<path d="M18.0645 21.2107C18.093 21.4268 18.1722 21.633 18.2956 21.8127C18.4189 21.9923 18.583 22.1403 18.7744 22.2445L18.7808 22.244C19.1421 22.4171 19.4095 22.2341 19.3785 21.8342L19.3221 21.1091L18.0079 20.4818L18.0645 21.2107Z" fill="#E6E6E6"/>
<path d="M6.24638 15.5592C6.27541 15.7757 6.35535 15.9822 6.47963 16.1618C6.60392 16.3415 6.76901 16.4891 6.96138 16.5926L6.96783 16.5921C7.32913 16.7652 7.59645 16.5809 7.56547 16.1822L7.50882 15.4533L6.18884 14.8355L6.24638 15.5592Z" fill="#DD7070"/>
<path d="M8.87239 16.8152C8.90092 17.0313 8.98008 17.2375 9.10344 17.4172C9.22679 17.5968 9.39084 17.7448 9.58223 17.849C9.94353 18.0221 10.2109 17.8378 10.1799 17.4392L10.1232 16.7102L8.81018 16.0815L8.87239 16.8152Z" fill="#DD7070"/>
<path d="M11.4984 18.0714C11.5269 18.2874 11.6061 18.4937 11.7294 18.6733C11.8528 18.853 12.0168 19.0009 12.2082 19.1052L12.2147 19.1047C12.576 19.2778 12.842 19.0935 12.811 18.6949L12.7544 17.966L11.4413 17.3373L11.4984 18.0714Z" fill="#DD7070"/>
<path d="M14.1256 19.3273C14.1541 19.5432 14.2332 19.7493 14.3563 19.9289C14.4794 20.1085 14.6431 20.2566 14.8341 20.3612C15.1953 20.533 15.4627 20.35 15.4318 19.9513L15.3751 19.2224L14.0621 18.5937L14.1256 19.3273Z" fill="#DD7070"/>
<path d="M16.7464 20.5838C16.7752 20.7998 16.8544 21.006 16.9777 21.1856C17.1011 21.3652 17.265 21.5132 17.4563 21.6176L17.4627 21.6171C17.8226 21.789 18.0901 21.606 18.0591 21.2073L18.0024 20.4784L16.6902 19.86L16.7464 20.5838Z" fill="#DD7070"/>
<g opacity="0.3">
<path opacity="0.3" d="M6.24638 15.5592C6.27541 15.7757 6.35535 15.9822 6.47963 16.1618C6.60392 16.3415 6.76901 16.4891 6.96138 16.5926L6.96783 16.5921C7.32913 16.7652 7.59645 16.5809 7.56547 16.1822L7.50882 15.4533L6.18884 14.8355L6.24638 15.5592Z" fill="#DD7070"/>
<path opacity="0.3" d="M8.87233 16.8153C8.90085 17.0313 8.98002 17.2376 9.10337 17.4172C9.22673 17.5969 9.39078 17.7449 9.58217 17.8491C9.94347 18.0222 10.2108 17.8379 10.1798 17.4392L10.1232 16.7103L8.81012 16.0816L8.87233 16.8153Z" fill="#DD7070"/>
<path opacity="0.3" d="M11.4983 18.0714C11.5269 18.2875 11.606 18.4937 11.7294 18.6734C11.8527 18.853 12.0168 19.001 12.2082 19.1052L12.2146 19.1047C12.5759 19.2778 12.842 19.0936 12.811 18.695L12.7543 17.966L11.4413 17.3373L11.4983 18.0714Z" fill="#DD7070"/>
<path opacity="0.3" d="M14.1255 19.3273C14.1541 19.5432 14.2331 19.7493 14.3562 19.929C14.4793 20.1086 14.643 20.2567 14.8341 20.3612C15.1953 20.533 15.4627 20.35 15.4317 19.9514L15.3751 19.2224L14.062 18.5938L14.1255 19.3273Z" fill="#DD7070"/>
<path opacity="0.3" d="M16.7464 20.5839C16.7751 20.7999 16.8543 21.006 16.9777 21.1856C17.101 21.3653 17.265 21.5133 17.4562 21.6177L17.4627 21.6172C17.8226 21.7891 18.09 21.6061 18.059 21.2074L18.0024 20.4785L16.6901 19.8601L16.7464 20.5839Z" fill="#DD7070"/>
</g>
<path d="M19.3222 21.1092L4.87545 14.2017L7.56487 10.8296L22.0103 17.7372L19.3222 21.1092Z" fill="#FAFAFA"/>
<path d="M18.0079 20.4819L20.6973 17.1099L19.3843 16.4812L16.6948 19.8532L18.0079 20.4819Z" fill="#DD7070"/>
<path d="M15.382 19.2257L18.0714 15.8537L16.7571 15.2251L14.0689 18.5971L15.382 19.2257Z" fill="#DD7070"/>
<path d="M12.7559 17.9697L15.4441 14.5978L14.131 13.9691L11.4416 17.3411L12.7559 17.9697Z" fill="#DD7070"/>
<path d="M10.1298 16.7137L12.8179 13.3417L11.505 12.7143L8.81558 16.0864L10.1298 16.7137Z" fill="#DD7070"/>
<path d="M7.50254 15.4576L10.192 12.0856L8.87773 11.4583L6.1896 14.8302L7.50254 15.4576Z" fill="#DD7070"/>
<path d="M29.3979 26.0189L29.5395 27.8405C29.5536 28.0224 29.6816 28.1163 29.8411 28.1818C30.0007 28.2473 29.5491 26.0941 29.5491 26.0941L29.3979 26.0189Z" fill="#E0E0E0"/>
<path d="M29.5491 26.094L29.6848 27.8409C29.7112 28.1802 29.9198 28.3262 30.2008 28.133L30.4165 27.9865C30.5632 27.8737 30.6812 27.7278 30.7609 27.5608C30.8406 27.3938 30.8798 27.2104 30.8753 27.0254L30.7395 25.2786L29.5491 26.094Z" fill="#EBEBEB"/>
<path d="M30.7395 25.2786L30.5869 25.2022L29.3979 26.0188L29.5491 26.0941L30.7395 25.2786Z" fill="#FAFAFA"/>
<path d="M30.6593 28.6387C30.5913 28.6437 30.5231 28.6306 30.4617 28.6008C30.4002 28.5714 30.3475 28.5263 30.3089 28.4701C30.2704 28.4138 30.2473 28.3484 30.2421 28.2804L30.117 26.6703C30.1148 26.643 30.1237 26.6159 30.1415 26.595C30.1594 26.5742 30.1848 26.5612 30.2122 26.5591C30.2395 26.557 30.2666 26.5658 30.2875 26.5837C30.3083 26.6015 30.3213 26.6269 30.3234 26.6543L30.4486 28.2657C30.4513 28.2973 30.4622 28.3277 30.4802 28.3538C30.4982 28.3799 30.5227 28.4009 30.5513 28.4147C30.5799 28.4285 30.6116 28.4345 30.6432 28.4323C30.6749 28.4301 30.7054 28.4197 30.7318 28.402L31.5142 27.8649C31.5255 27.8572 31.5381 27.8518 31.5515 27.849C31.5648 27.8462 31.5786 27.846 31.5919 27.8485C31.6053 27.8511 31.6181 27.8562 31.6295 27.8636C31.6409 27.8711 31.6508 27.8807 31.6585 27.892C31.6661 27.9032 31.6715 27.9159 31.6743 27.9292C31.6771 27.9425 31.6773 27.9563 31.6748 27.9697C31.6723 27.9831 31.6671 27.9958 31.6597 28.0073C31.6522 28.0187 31.6426 28.0285 31.6314 28.0362L30.8488 28.572C30.7926 28.6105 30.7272 28.6335 30.6593 28.6387Z" fill="#DD7070"/>
<path opacity="0.5" d="M30.6593 28.6387C30.5913 28.6437 30.5231 28.6306 30.4617 28.6008C30.4002 28.5714 30.3475 28.5263 30.3089 28.4701C30.2704 28.4138 30.2473 28.3484 30.2421 28.2804L30.117 26.6703C30.1148 26.643 30.1237 26.6159 30.1415 26.595C30.1594 26.5742 30.1848 26.5612 30.2122 26.5591C30.2395 26.557 30.2666 26.5658 30.2875 26.5837C30.3083 26.6015 30.3213 26.6269 30.3234 26.6543L30.4486 28.2657C30.4513 28.2973 30.4622 28.3277 30.4802 28.3538C30.4982 28.3799 30.5227 28.4009 30.5513 28.4147C30.5799 28.4285 30.6116 28.4345 30.6432 28.4323C30.6749 28.4301 30.7054 28.4197 30.7318 28.402L31.5142 27.8649C31.5255 27.8572 31.5381 27.8518 31.5515 27.849C31.5648 27.8462 31.5786 27.846 31.5919 27.8485C31.6053 27.8511 31.6181 27.8562 31.6295 27.8636C31.6409 27.8711 31.6508 27.8807 31.6585 27.892C31.6661 27.9032 31.6715 27.9159 31.6743 27.9292C31.6771 27.9425 31.6773 27.9563 31.6748 27.9697C31.6723 27.9831 31.6671 27.9958 31.6597 28.0073C31.6522 28.0187 31.6426 28.0285 31.6314 28.0362L30.8488 28.572C30.7926 28.6105 30.7272 28.6335 30.6593 28.6387Z" fill="#DD7070"/>
<path d="M44.8663 29.0726C44.8663 29.0726 43.5893 31.1628 40.6147 33.2695C38.1444 35.019 35.3446 35.6013 35.3446 35.6013L34.6276 31.152L44.1454 24.6235L44.8663 29.0726Z" fill="#DD7070"/>
<path opacity="0.3" d="M44.8663 29.0726C44.8663 29.0726 43.5893 31.1628 40.6147 33.2695C38.1444 35.019 35.3446 35.6013 35.3446 35.6013L34.6276 31.152L44.1454 24.6235L44.8663 29.0726Z" fill="#DD7070"/>
<path d="M44.1508 24.6231C44.1508 24.6231 42.8725 26.7135 39.8979 28.8202C37.4289 30.5696 34.6278 31.152 34.6278 31.152L32.4071 28.364L41.9237 21.8369L44.1508 24.6231Z" fill="#DD7070"/>
<path d="M44.9996 28.3989C44.9801 28.3823 44.9636 28.3862 44.948 28.4198C44.948 28.4198 43.6708 30.5075 40.695 32.6156C38.226 34.365 35.4314 34.9469 35.4314 34.9469C34.2286 35.152 32.6473 33.9951 32.6473 33.9951L32.8395 33.8296C32.8395 33.8296 34.3286 34.786 35.0433 34.7304C35.6587 34.6826 37.8392 34.2315 40.696 32.3118C43.5528 30.3921 44.744 28.2332 44.744 28.2332C44.7972 28.2369 44.8485 28.2541 44.8932 28.2831C44.9379 28.312 44.9745 28.3519 44.9996 28.3989Z" fill="#37474F"/>
<path d="M44.9415 28.419C44.9415 28.419 43.6646 30.5093 40.6886 32.616C38.2197 34.3654 35.425 34.9473 35.425 34.9473C34.2221 35.1512 32.641 33.9956 32.641 33.9956L32.7737 35.7037C32.7737 35.7037 34.3554 36.8657 35.5583 36.6619C35.5583 36.6619 38.3529 36.08 40.8219 34.3306C43.7978 32.2238 45.0748 30.1336 45.0748 30.1336C45.2879 29.6861 45.0664 28.1549 44.9415 28.419Z" fill="#455A64"/>
<path d="M36.0223 31.9444C36.1248 31.9104 36.2337 31.8996 36.3409 31.9127C36.4482 31.9258 36.5512 31.9625 36.6426 32.0202C36.7339 32.0779 36.8114 32.1551 36.8693 32.2463C36.9273 32.3375 36.9643 32.4404 36.9777 32.5476C37.0195 32.7796 36.9773 33.0189 36.8588 33.2226C36.7403 33.4264 36.5531 33.5813 36.3308 33.6596C36.2282 33.6941 36.1193 33.7053 36.0118 33.6924C35.9044 33.6795 35.8012 33.6428 35.7097 33.5851C35.6182 33.5273 35.5407 33.4499 35.4829 33.3584C35.4251 33.267 35.3883 33.1638 35.3754 33.0564C35.338 32.8248 35.3821 32.5875 35.5 32.3847C35.618 32.182 35.8025 32.0264 36.0223 31.9444Z" fill="white"/>
<path d="M43.5975 26.7908C43.3475 27.0815 43.2197 27.6742 43.3107 28.111C43.4018 28.5479 43.6658 28.6714 43.9015 28.3805C44.1371 28.0896 44.2649 27.4956 44.1882 27.0603C44.1116 26.625 43.8475 26.5001 43.5975 26.7908Z" fill="white"/>
<path d="M37.6384 31.2307C38.4788 30.8926 39.277 30.4577 40.0168 29.9349C40.1338 29.8544 40.2362 29.9022 40.2474 30.0467L40.2615 30.2286C40.2633 30.3062 40.2471 30.3831 40.214 30.4532C40.1809 30.5234 40.132 30.5849 40.071 30.6328C39.3308 31.1547 38.5327 31.5892 37.6926 31.9274C37.6644 31.9407 37.6334 31.9466 37.6023 31.9446C37.5713 31.9427 37.5412 31.9328 37.515 31.916C37.4888 31.8993 37.4673 31.8761 37.4525 31.8487C37.4377 31.8214 37.43 31.7907 37.4303 31.7596L37.4163 31.579C37.4136 31.5052 37.4334 31.4324 37.4731 31.3702C37.5128 31.308 37.5704 31.2594 37.6384 31.2307Z" fill="#37474F"/>
<path d="M42.7753 27.8866L42.7893 28.0659C42.7937 28.2283 42.7347 28.386 42.6249 28.5057C42.0735 29.0463 41.4926 29.5559 40.8849 30.0323C40.7723 30.1202 40.6713 30.0735 40.6603 29.9316L40.6463 29.751C40.6447 29.6725 40.6604 29.5946 40.6923 29.5228C40.7241 29.451 40.7714 29.3871 40.8307 29.3356C41.4381 28.8593 42.019 28.3501 42.5708 27.8103C42.673 27.705 42.7642 27.7434 42.7753 27.8866Z" fill="#37474F"/>
<path d="M37.7373 32.5015C38.5777 32.1634 39.3759 31.7285 40.1156 31.2057C40.2327 31.1252 40.3351 31.1731 40.3463 31.3176L40.3603 31.4982C40.3622 31.5757 40.346 31.6527 40.3129 31.7228C40.2798 31.793 40.2308 31.8545 40.1698 31.9024C39.4294 32.4242 38.6313 32.859 37.7915 33.1982C37.7632 33.2112 37.7321 33.2169 37.7011 33.2147C37.67 33.2125 37.64 33.2025 37.6139 33.1856C37.5877 33.1688 37.5663 33.1456 37.5514 33.1182C37.5366 33.0909 37.5289 33.0602 37.5291 33.0291L37.5151 32.8485C37.5127 32.775 37.5326 32.7025 37.5723 32.6405C37.612 32.5786 37.6695 32.5301 37.7373 32.5015Z" fill="#37474F"/>
<path d="M42.8735 29.1509L42.8876 29.3316C42.8918 29.4935 42.8328 29.6508 42.7231 29.7701C42.1717 30.3106 41.5908 30.8203 40.9831 31.2967C40.8705 31.3846 40.7695 31.3379 40.7585 31.196L40.7445 31.0154C40.7429 30.9369 40.7586 30.8589 40.7905 30.7872C40.8224 30.7154 40.8696 30.6515 40.9289 30.6C41.5363 30.1236 42.1172 29.6144 42.669 29.0747C42.7716 28.9746 42.8624 29.0077 42.8735 29.1509Z" fill="#37474F"/>
<path opacity="0.15" d="M37.6163 26.1342C36.3464 26.9528 35.0226 27.6844 33.6539 28.3242C33.6246 28.3357 33.5984 28.3541 33.5778 28.3779C33.5571 28.4017 33.5425 28.4301 33.5352 28.4608C33.5278 28.4914 33.5281 28.5234 33.5358 28.554C33.5435 28.5845 33.5585 28.6128 33.5795 28.6363L33.588 28.646C33.6372 28.7038 33.7015 28.7469 33.7736 28.7704C33.8458 28.7939 33.9231 28.7969 33.9969 28.7791C34.5932 28.6029 36.1958 28.0475 38.1441 26.7967C38.1721 26.7791 38.196 26.7558 38.2142 26.7283C38.2324 26.7007 38.2446 26.6696 38.2498 26.637C38.255 26.6044 38.2532 26.5711 38.2444 26.5392C38.2357 26.5074 38.2202 26.4777 38.1991 26.4524L37.9934 26.1932C37.9485 26.1391 37.8854 26.1033 37.816 26.0925C37.7466 26.0816 37.6756 26.0965 37.6163 26.1342Z" fill="#DD7070"/>
<path opacity="0.15" d="M41.6418 22.853C40.6542 23.8467 39.5841 24.7548 38.4431 25.5677C38.4156 25.5865 38.3924 25.6108 38.3748 25.639C38.3572 25.6673 38.3457 25.6989 38.3409 25.7318C38.3361 25.7648 38.3383 25.7983 38.3471 25.8304C38.356 25.8625 38.3714 25.8924 38.3924 25.9182L38.601 26.1797C38.6452 26.2336 38.708 26.2689 38.777 26.2787C38.8461 26.2885 38.9162 26.272 38.9737 26.2325C40.7322 24.9783 41.6419 23.9238 42.0521 23.3572C42.0922 23.2947 42.1123 23.2214 42.1098 23.1472C42.1072 23.073 42.0822 23.0013 42.038 22.9416L41.9818 22.8694C41.9623 22.8435 41.9372 22.8221 41.9085 22.8069C41.8798 22.7917 41.8481 22.783 41.8156 22.7814C41.7832 22.7799 41.7508 22.7855 41.7207 22.7978C41.6907 22.8102 41.6637 22.8291 41.6418 22.853Z" fill="#DD7070"/>
<path d="M41.9261 21.8354C41.9261 21.8354 40.4086 23.6199 37.8169 25.41C36.1103 26.5619 34.2989 27.5505 32.4069 28.3627L30.2617 20.9352L36.2099 16.8569L38.9455 14.9817L39.7796 14.408L41.9261 21.8354Z" fill="#455A64"/>
<path d="M39.781 14.408L38.9469 14.9816L36.2112 16.8568L30.2631 20.9351L32.4069 28.3627C34.2985 27.5505 36.1094 26.5619 37.8156 25.4101C40.4022 23.6204 41.9248 21.8355 41.9248 21.8355L39.781 14.408ZM37.0655 25.545C35.7274 26.4009 34.3299 27.1601 32.8837 27.8169C32.8491 27.8338 32.8111 27.8429 32.7726 27.8433C32.7341 27.8437 32.6959 27.8355 32.661 27.8194C32.626 27.8032 32.5951 27.7794 32.5705 27.7497C32.5459 27.7201 32.5282 27.6853 32.5188 27.6479L31.1905 22.9488C31.1695 22.8627 31.1742 22.7724 31.2039 22.6889C31.2336 22.6054 31.2871 22.5324 31.3578 22.479L35.2171 19.8311C35.2458 19.8074 35.2801 19.7915 35.3167 19.7848C35.3533 19.7782 35.391 19.7809 35.4263 19.7929C35.4615 19.8048 35.4931 19.8255 35.5181 19.8531C35.5431 19.8807 35.5606 19.9142 35.569 19.9504L37.2267 25.0808C37.2515 25.1653 37.2493 25.2555 37.2204 25.3387C37.1915 25.4219 37.1374 25.494 37.0655 25.545ZM37.8321 25.0376C37.8038 25.0611 37.77 25.0769 37.7338 25.0835C37.6977 25.0901 37.6604 25.0874 37.6256 25.0755C37.5908 25.0636 37.5597 25.043 37.5351 25.0156C37.5106 24.9883 37.4935 24.9551 37.4855 24.9192L35.8356 19.7895C35.8122 19.7042 35.8151 19.6138 35.8438 19.5301C35.8725 19.4464 35.9256 19.3732 35.9964 19.3201L36.7274 18.822L39.7052 16.7735L39.8371 16.6828C39.8651 16.6597 39.8986 16.6442 39.9344 16.638C39.9702 16.6318 40.007 16.6349 40.0412 16.6472C40.0754 16.6595 40.1058 16.6804 40.1295 16.7079C40.1531 16.7355 40.1692 16.7687 40.1762 16.8044L41.4964 21.4665C41.517 21.5568 41.5164 21.6506 41.4945 21.7406C41.4727 21.8306 41.4303 21.9143 41.3706 21.985C40.2883 23.1095 39.1037 24.1305 37.8319 25.035L37.8321 25.0376Z" fill="#DD7070"/>
<path opacity="0.3" d="M39.781 14.408L38.9469 14.9816L36.2112 16.8568L30.2631 20.9351L32.4069 28.3627C34.2985 27.5505 36.1094 26.5619 37.8156 25.4101C40.4022 23.6204 41.9248 21.8355 41.9248 21.8355L39.781 14.408ZM37.0655 25.545C35.7274 26.4009 34.3299 27.1601 32.8837 27.8169C32.8491 27.8338 32.8111 27.8429 32.7726 27.8433C32.7341 27.8437 32.6959 27.8355 32.661 27.8194C32.626 27.8032 32.5951 27.7794 32.5705 27.7497C32.5459 27.7201 32.5282 27.6853 32.5188 27.6479L31.1905 22.9488C31.1695 22.8627 31.1742 22.7724 31.2039 22.6889C31.2336 22.6054 31.2871 22.5324 31.3578 22.479L35.2171 19.8311C35.2458 19.8074 35.2801 19.7915 35.3167 19.7848C35.3533 19.7782 35.391 19.7809 35.4263 19.7929C35.4615 19.8048 35.4931 19.8255 35.5181 19.8531C35.5431 19.8807 35.5606 19.9142 35.569 19.9504L37.2267 25.0808C37.2515 25.1653 37.2493 25.2555 37.2204 25.3387C37.1915 25.4219 37.1374 25.494 37.0655 25.545ZM37.8321 25.0376C37.8038 25.0611 37.77 25.0769 37.7338 25.0835C37.6977 25.0901 37.6604 25.0874 37.6256 25.0755C37.5908 25.0636 37.5597 25.043 37.5351 25.0156C37.5106 24.9883 37.4935 24.9551 37.4855 24.9192L35.8356 19.7895C35.8122 19.7042 35.8151 19.6138 35.8438 19.5301C35.8725 19.4464 35.9256 19.3732 35.9964 19.3201L36.7274 18.822L39.7052 16.7735L39.8371 16.6828C39.8651 16.6597 39.8986 16.6442 39.9344 16.638C39.9702 16.6318 40.007 16.6349 40.0412 16.6472C40.0754 16.6595 40.1058 16.6804 40.1295 16.7079C40.1531 16.7355 40.1692 16.7687 40.1762 16.8044L41.4964 21.4665C41.517 21.5568 41.5164 21.6506 41.4945 21.7406C41.4727 21.8306 41.4303 21.9143 41.3706 21.985C40.2883 23.1095 39.1037 24.1305 37.8319 25.035L37.8321 25.0376Z" fill="#DD7070"/>
<path d="M31.1848 22.0913L39.7683 16.2001C39.8232 16.1586 39.8648 16.1021 39.8881 16.0373C39.9115 15.9726 39.9154 15.9025 39.8996 15.8355L39.6778 15.0364C39.6733 15.0077 39.6612 14.9808 39.6426 14.9585C39.624 14.9363 39.5998 14.9194 39.5724 14.9098C39.545 14.9002 39.5155 14.8982 39.4871 14.9041C39.4587 14.9099 39.4324 14.9233 39.411 14.9429L30.8278 20.838C30.7729 20.8795 30.7312 20.936 30.7079 21.0008C30.6846 21.0655 30.6806 21.1356 30.6965 21.2025L30.922 22.0001C30.9276 22.0276 30.9403 22.0532 30.9588 22.0743C30.9773 22.0954 31.0009 22.1113 31.0274 22.1205C31.0539 22.1297 31.0824 22.1319 31.11 22.1267C31.1375 22.1216 31.1633 22.1094 31.1848 22.0913Z" fill="#455A64"/>
<path d="M37.2281 25.0819C37.2516 25.1659 37.2486 25.2551 37.2194 25.3372C37.1902 25.4194 37.1364 25.4906 37.0652 25.541C35.7276 26.3986 34.3301 27.1592 32.8837 27.8168C32.8491 27.8338 32.8111 27.8428 32.7726 27.8432C32.7341 27.8436 32.6959 27.8355 32.661 27.8193C32.626 27.8031 32.5951 27.7793 32.5705 27.7496C32.5459 27.72 32.5282 27.6852 32.5188 27.6479L32.4311 27.338C33.2551 26.6341 35.2597 24.9545 36.8143 23.8823L36.8328 23.8692L37.2281 25.0819Z" fill="#37474F"/>
<path d="M41.4409 21.8886C41.4227 21.9232 41.3999 21.9552 41.373 21.9835C40.2901 23.1092 39.1041 24.1308 37.8305 25.0351C37.8024 25.0586 37.7686 25.0744 37.7325 25.0811C37.6964 25.0877 37.6592 25.085 37.6245 25.073C37.5898 25.0611 37.5587 25.0405 37.5343 25.013C37.5099 24.9856 37.493 24.9524 37.4852 24.9165L37.0948 23.7009C38.309 22.9019 39.583 22.1976 40.9053 21.5941L41.4409 21.8886Z" fill="#37474F"/>
<path opacity="0.1" d="M40.7331 20.9131L39.5954 20.3695C39.4588 20.2947 39.3417 20.1888 39.2536 20.0604C39.1656 19.9319 39.1092 19.7845 39.0888 19.6301L38.9093 17.3194L39.7078 16.772L39.8396 16.6812L39.8507 16.6739L40.9623 20.7227C41.0148 20.9133 40.9124 20.9991 40.7331 20.9131Z" fill="white"/>
<path opacity="0.1" d="M38.1514 17.8404L38.2758 19.4414C38.289 19.6117 38.1758 19.6906 38.0194 19.6158L36.573 18.9248L36.7273 18.822L38.1514 17.8404Z" fill="white"/>
<path d="M36.1613 12.157L36.16 12.1571L15.2293 2.14913L5.71127 8.67501L26.6433 18.6829L30.2629 20.9338L39.7808 14.4066L36.1613 12.157Z" fill="#DD7070"/>
</g>
<defs>
<filter id="filter0_d" x="0.631104" y="0.326111" width="49.0404" height="46.2148" filterUnits="userSpaceOnUse" color-interpolation-filters="sRGB">
<feFlood flood-opacity="0" result="BackgroundImageFix"/>
<feColorMatrix in="SourceAlpha" type="matrix" values="0 0 0 0 0 0 0 0 0 0 0 0 0 0 0 0 0 0 127 0"/>
<feOffset dy="4"/>
<feGaussianBlur stdDeviation="2"/>
<feColorMatrix type="matrix" values="0 0 0 0 0 0 0 0 0 0 0 0 0 0 0 0 0 0 0.25 0"/>
<feBlend mode="normal" in2="BackgroundImageFix" result="effect1_dropShadow"/>
<feBlend mode="normal" in="SourceGraphic" in2="effect1_dropShadow" result="shape"/>
</filter>
</defs>
</svg>
